<svg width="131" height="66" viewBox="0 0 131 66" fill="none" xmlns="http://www.w3.org/2000/svg">
<path d="M1.66699 1C22.4629 2.73299 23.7507 44.2218 44.3337 49C61.3068 52.9402 69.9015 30.5738 87.0003 33C105.547 35.6316 111.482 58.9382 129.667 65H1.66699V1Z" fill="#FEF3F2"/>
<path d="M1.66699 1C22.4629 2.73299 23.7507 44.2218 44.3337 49C61.3068 52.9402 69.9015 30.5738 87.0003 33C105.547 35.6316 111.482 58.9382 129.667 65H1.66699V1Z" fill="url(#paint0_linear_5077_162692)"/>
<path d="M129.667 65C111.482 58.9382 105.547 35.6316 87.0003 33C69.9015 30.5738 61.3068 52.9402 44.3337 49C23.7507 44.2218 22.4629 2.73299 1.66699 1" stroke="#F04438" stroke-width="2" stroke-linecap="round" stroke-linejoin="round"/>
<defs>
<linearGradient id="paint0_linear_5077_162692" x1="65.667" y1="1" x2="65.667" y2="65" gradientUnits="userSpaceOnUse">
<stop offset="0.641167" stop-color="white" stop-opacity="0"/>
<stop offset="1" stop-color="white"/>
</linearGradient>
</defs>
</svg>
