<svg width="131" height="66" viewBox="0 0 131 66" fill="none" xmlns="http://www.w3.org/2000/svg">
<path d="M129.333 1C108.538 2.73299 107.25 44.2218 86.6668 49C69.6937 52.9402 61.099 30.5738 44.0002 33C25.4539 35.6316 19.519 58.9382 1.3335 65H129.333V1Z" fill="#ECFDF3"/>
<path d="M129.333 1C108.538 2.73299 107.25 44.2218 86.6668 49C69.6937 52.9402 61.099 30.5738 44.0002 33C25.4539 35.6316 19.519 58.9382 1.3335 65H129.333V1Z" fill="url(#paint0_linear_5077_162730)"/>
<path d="M1.3335 65C19.519 58.9382 25.4539 35.6316 44.0002 33C61.099 30.5738 69.6937 52.9402 86.6668 49C107.25 44.2218 108.538 2.73299 129.333 1" stroke="#12B76A" stroke-width="2" stroke-linecap="round" stroke-linejoin="round"/>
<defs>
<linearGradient id="paint0_linear_5077_162730" x1="65.3335" y1="1" x2="65.3335" y2="65" gradientUnits="userSpaceOnUse">
<stop offset="0.641167" stop-color="white" stop-opacity="0"/>
<stop offset="1" stop-color="white"/>
</linearGradient>
</defs>
</svg>
