<svg width="64" height="64" viewBox="0 0 64 64" fill="none" xmlns="http://www.w3.org/2000/svg">
<path d="M32 3C35.8083 3 39.5794 3.75011 43.0978 5.20749C46.6163 6.66488 49.8132 8.80101 52.5061 11.4939C55.199 14.1868 57.3351 17.3837 58.7925 20.9022C60.2499 24.4206 61 28.1917 61 32C61 35.8083 60.2499 39.5794 58.7925 43.0978C57.3351 46.6163 55.199 49.8132 52.5061 52.5061C49.8132 55.199 46.6163 57.3351 43.0978 58.7925C39.5794 60.2499 35.8083 61 32 61C28.1917 61 24.4206 60.2499 20.9022 58.7925C17.3837 57.3351 14.1868 55.199 11.4939 52.5061C8.801 49.8132 6.66487 46.6163 5.20749 43.0978C3.7501 39.5794 3 35.8083 3 32C3 28.1917 3.75011 24.4206 5.2075 20.9022C6.66489 17.3837 8.80101 14.1868 11.4939 11.4939C14.1868 8.80099 17.3838 6.66487 20.9022 5.20749C24.4206 3.7501 28.1917 3 32 3L32 3Z" stroke="#7F56D9" stroke-width="6" stroke-linecap="round" stroke-linejoin="round"/>
<path d="M32 3C38.1242 3 44.0912 4.93879 49.0458 8.53851C54.0004 12.1382 57.6882 17.214 59.5806 23.0385C61.4731 28.863 61.4731 35.137 59.5806 40.9615C57.6882 46.786 54.0004 51.8618 49.0458 55.4615C44.0912 59.0612 38.1242 61 32 61C25.8758 61 19.9088 59.0612 14.9542 55.4615C9.99964 51.8618 6.31184 46.7859 4.41936 40.9615C2.52688 35.137 2.52688 28.863 4.41936 23.0385" stroke="#F2F4F7" stroke-width="6" stroke-linecap="round" stroke-linejoin="round"/>
<path d="M21.6815 37.1392C20.9689 37.1392 20.3391 37.0166 19.7923 36.7713C19.2487 36.526 18.8228 36.188 18.5146 35.7571C18.2063 35.3262 18.0539 34.8357 18.0572 34.2855C18.0539 33.8546 18.1417 33.4586 18.3207 33.0973C18.503 32.7327 18.7499 32.4295 19.0614 32.1875C19.373 31.9422 19.721 31.7865 20.1055 31.7202V31.6605C19.5984 31.5379 19.1924 31.2661 18.8874 30.8452C18.5825 30.4242 18.4317 29.9403 18.435 29.3935C18.4317 28.8731 18.5692 28.4091 18.8477 28.0014C19.1294 27.5904 19.5155 27.2673 20.006 27.032C20.4966 26.7966 21.055 26.679 21.6815 26.679C22.3013 26.679 22.8548 26.7983 23.342 27.0369C23.8325 27.2723 24.2186 27.5954 24.5004 28.0064C24.7821 28.4141 24.9246 28.8764 24.9279 29.3935C24.9246 29.9403 24.7688 30.4242 24.4606 30.8452C24.1523 31.2661 23.7513 31.5379 23.2575 31.6605V31.7202C23.6386 31.7865 23.9817 31.9422 24.2866 32.1875C24.5948 32.4295 24.8401 32.7327 25.0224 33.0973C25.208 33.4586 25.3024 33.8546 25.3058 34.2855C25.3024 34.8357 25.1467 35.3262 24.8384 35.7571C24.5302 36.188 24.1026 36.526 23.5558 36.7713C23.0122 37.0166 22.3874 37.1392 21.6815 37.1392ZM21.6815 35.8814C22.1024 35.8814 22.467 35.8118 22.7752 35.6726C23.0835 35.5301 23.3221 35.3329 23.4911 35.081C23.6602 34.8258 23.7463 34.5275 23.7496 34.1861C23.7463 33.8314 23.6535 33.5182 23.4712 33.2464C23.2923 32.9747 23.0487 32.7609 22.7404 32.6051C22.4322 32.4493 22.0792 32.3714 21.6815 32.3714C21.2804 32.3714 20.9241 32.4493 20.6126 32.6051C20.301 32.7609 20.0558 32.9747 19.8768 33.2464C19.6978 33.5182 19.61 33.8314 19.6133 34.1861C19.61 34.5275 19.6912 34.8258 19.8569 35.081C20.0259 35.3329 20.2662 35.5301 20.5778 35.6726C20.8893 35.8118 21.2572 35.8814 21.6815 35.8814ZM21.6815 31.1435C22.0195 31.1435 22.3195 31.0755 22.5813 30.9396C22.8432 30.8037 23.0487 30.6148 23.1978 30.3729C23.3503 30.1309 23.4281 29.8475 23.4315 29.5227C23.4281 29.2045 23.3519 28.9261 23.2028 28.6875C23.0569 28.4489 22.8531 28.2649 22.5913 28.1357C22.3294 28.0031 22.0262 27.9368 21.6815 27.9368C21.3301 27.9368 21.0219 28.0031 20.7567 28.1357C20.4949 28.2649 20.2911 28.4489 20.1452 28.6875C19.9994 28.9261 19.9281 29.2045 19.9315 29.5227C19.9281 29.8475 20.0011 30.1309 20.1502 30.3729C20.2994 30.6148 20.5049 30.8037 20.7667 30.9396C21.0318 31.0755 21.3368 31.1435 21.6815 31.1435ZM30.6316 37.169C29.8461 37.1657 29.1749 36.9586 28.6181 36.5476C28.0613 36.1366 27.6354 35.5384 27.3404 34.7528C27.0454 33.9673 26.8979 33.0211 26.8979 31.9141C26.8979 30.8104 27.0454 29.8674 27.3404 29.0852C27.6387 28.303 28.0662 27.7064 28.623 27.2955C29.1832 26.8845 29.8527 26.679 30.6316 26.679C31.4105 26.679 32.0783 26.8861 32.6351 27.3004C33.1919 27.7114 33.6178 28.308 33.9128 29.0902C34.2111 29.8691 34.3603 30.8104 34.3603 31.9141C34.3603 33.0244 34.2128 33.9723 33.9178 34.7578C33.6228 35.54 33.1969 36.1383 32.6401 36.5526C32.0833 36.9635 31.4138 37.169 30.6316 37.169ZM30.6316 35.8416C31.321 35.8416 31.8596 35.5052 32.2473 34.8324C32.6384 34.1596 32.834 33.1868 32.834 31.9141C32.834 31.0689 32.7445 30.3546 32.5655 29.7713C32.3899 29.1847 32.1363 28.7405 31.8049 28.4389C31.4767 28.134 31.0856 27.9815 30.6316 27.9815C29.9455 27.9815 29.4069 28.3196 29.0158 28.9957C28.6247 29.6719 28.4275 30.6446 28.4242 31.9141C28.4242 32.7625 28.512 33.4801 28.6877 34.0668C28.8667 34.6501 29.1202 35.0926 29.4483 35.3942C29.7765 35.6925 30.1709 35.8416 30.6316 35.8416ZM41.4386 35.0909V34.554C41.4386 34.1695 41.5181 33.8182 41.6772 33.5C41.8396 33.1785 42.0749 32.9216 42.3832 32.7294C42.6947 32.5339 43.0709 32.4361 43.5117 32.4361C43.9625 32.4361 44.3403 32.5322 44.6452 32.7244C44.9502 32.9167 45.1805 33.1735 45.3363 33.495C45.4954 33.8165 45.5749 34.1695 45.5749 34.554V35.0909C45.5749 35.4754 45.4954 35.8284 45.3363 36.1499C45.1772 36.468 44.9435 36.7249 44.6353 36.9205C44.3304 37.1127 43.9558 37.2088 43.5117 37.2088C43.0643 37.2088 42.6864 37.1127 42.3782 36.9205C42.07 36.7249 41.8363 36.468 41.6772 36.1499C41.5181 35.8284 41.4386 35.4754 41.4386 35.0909ZM42.5969 34.554V35.0909C42.5969 35.3759 42.6649 35.6345 42.8008 35.8665C42.9367 36.0985 43.1737 36.2145 43.5117 36.2145C43.8465 36.2145 44.0801 36.0985 44.2127 35.8665C44.3453 35.6345 44.4116 35.3759 44.4116 35.0909V34.554C44.4116 34.2689 44.3469 34.0104 44.2177 33.7784C44.0917 33.5464 43.8564 33.4304 43.5117 33.4304C43.1803 33.4304 42.945 33.5464 42.8058 33.7784C42.6665 34.0104 42.5969 34.2689 42.5969 34.554ZM36.3178 29.2642V28.7273C36.3178 28.3428 36.3974 27.9898 36.5565 27.6683C36.7189 27.3468 36.9542 27.09 37.2624 26.8977C37.574 26.7055 37.9502 26.6094 38.391 26.6094C38.8417 26.6094 39.2196 26.7055 39.5245 26.8977C39.8294 27.09 40.0598 27.3468 40.2156 27.6683C40.3713 27.9898 40.4492 28.3428 40.4492 28.7273V29.2642C40.4492 29.6487 40.3697 30.0017 40.2106 30.3232C40.0548 30.6413 39.8228 30.8982 39.5146 31.0938C39.2096 31.286 38.8351 31.3821 38.391 31.3821C37.9402 31.3821 37.5607 31.286 37.2525 31.0938C36.9476 30.8982 36.7156 30.6413 36.5565 30.3232C36.3974 30.0017 36.3178 29.6487 36.3178 29.2642ZM37.4812 28.7273V29.2642C37.4812 29.5492 37.5475 29.8078 37.68 30.0398C37.8159 30.2718 38.0529 30.3878 38.391 30.3878C38.7224 30.3878 38.9544 30.2718 39.087 30.0398C39.2229 29.8078 39.2908 29.5492 39.2908 29.2642V28.7273C39.2908 28.4422 39.2262 28.1837 39.0969 27.9517C38.9677 27.7197 38.7324 27.6037 38.391 27.6037C38.0595 27.6037 37.8242 27.7197 37.685 27.9517C37.5491 28.1837 37.4812 28.4422 37.4812 28.7273ZM36.7901 37L43.7901 26.8182H44.9783L37.9783 37H36.7901Z" fill="white"/>
</svg>
